The Offspring - All I Want.mp4

DVDrip

. . .

General
Format                                   : MPEG-4
Format profile                           : Base Media / Version 2
Codec ID                                 : mp42
File size                                : 73.4 MiB
Duration                                 : 1mn 56s
Overall bit rate mode                    : Variable
Overall bit rate                         : 5 267 Kbps
Encoded date                             : UTC 2013-04-08 15:08:18
Tagged date                              : UTC 2013-04-08 15:08:19
Writing application                      : mp4creator 1.4.4

Video
ID                                       : 1
Format                                   : AVC
Format/Info                              : Advanced Video Codec
Format profile                           : High@L3.0
Format settings, CABAC                   : Yes
Format settings, ReFrames                : 4 frames
Codec ID                                 : avc1
Codec ID/Info                            : Advanced Video Coding
Duration                                 : 1mn 56s
Bit rate mode                            : Variable
Bit rate                                 : 4 996 Kbps
Width                                    : 720 pixels
Height                                   : 480 pixels
Display aspect ratio                     : 3:2
Frame rate mode                          : Constant
Frame rate                               : 30.000 fps
Standard                                 : NTSC
Color space                              : YUV
Chroma subsampling                       : 4:2:0
Bit depth                                : 8 bits
Scan type                                : Progressive
Bits/(Pixel*Frame)                       : 0.482
Stream size                              : 69.7 MiB (95%)

Audio
ID                                       : 2
Format                                   : AAC
Format/Info                              : Advanced Audio Codec
Format profile                           : LC
Codec ID                                 : 40
Duration                                 : 1mn 56s
Bit rate mode                            : Variable
Bit rate                                 : 265 Kbps
Maximum bit rate                         : 292 Kbps
Channel(s)                               : 2 channels
Channel positions                        : Front: L R
Sampling rate                            : 48.0 KHz
Compression mode                         : Lossy
Stream size                              : 3.72 MiB (5%)